<svg width="160" height="129" viewBox="0 0 160 129" fill="none" xmlns="http://www.w3.org/2000/svg">
<rect width="160" height="24" rx="2" fill="white" fill-opacity="0.5"/>
<rect y="104" width="160" height="24" rx="2" fill="white" fill-opacity="0.5"/>
<path d="M16 1L18.6942 9.2918H27.4127L20.3593 14.4164L23.0534 22.7082L16 17.5836L8.94658 22.7082L11.6407 14.4164L4.58732 9.2918H13.3058L16 1Z" fill="black" fill-opacity="0.7"/>
<path d="M16 105L18.6942 113.292H27.4127L20.3593 118.416L23.0534 126.708L16 121.584L8.94658 126.708L11.6407 118.416L4.58732 113.292H13.3058L16 105Z" fill="#FFD43B"/>
<path d="M48 1L50.6942 9.2918H59.4127L52.3593 14.4164L55.0534 22.7082L48 17.5836L40.9466 22.7082L43.6407 14.4164L36.5873 9.2918H45.3058L48 1Z" fill="black" fill-opacity="0.7"/>
<path d="M48 105L50.6942 113.292H59.4127L52.3593 118.416L55.0534 126.708L48 121.584L40.9466 126.708L43.6407 118.416L36.5873 113.292H45.3058L48 105Z" fill="#FFD43B"/>
<path d="M80 1L82.6942 9.2918H91.4127L84.3593 14.4164L87.0534 22.7082L80 17.5836L72.9466 22.7082L75.6407 14.4164L68.5873 9.2918H77.3058L80 1Z" fill="black" fill-opacity="0.7"/>
<path d="M80 105L82.6942 113.292H91.4127L84.3593 118.416L87.0534 126.708L80 121.584L72.9466 126.708L75.6407 118.416L68.5873 113.292H77.3058L80 105Z" fill="#FFD43B"/>
<path d="M112 1L114.694 9.2918H123.413L116.359 14.4164L119.053 22.7082L112 17.5836L104.947 22.7082L107.641 14.4164L100.587 9.2918H109.306L112 1Z" fill="black" fill-opacity="0.7"/>
<path d="M112 105L114.694 113.292H123.413L116.359 118.416L119.053 126.708L112 121.584L104.947 126.708L107.641 118.416L100.587 113.292H109.306L112 105Z" fill="#FFD43B"/>
<path d="M144 1L146.694 9.2918H155.413L148.359 14.4164L151.053 22.7082L144 17.5836L136.947 22.7082L139.641 14.4164L132.587 9.2918H141.306L144 1Z" fill="black" fill-opacity="0.7"/>
<path d="M144 105V121.584L136.947 126.708L139.641 118.416L132.587 113.292H141.306L144 105Z" fill="#FFD43B"/>
<path d="M144 105V121.584L151.053 126.708L148.359 118.416L155.413 113.292H146.694L144 105Z" fill="black" fill-opacity="0.7"/>
<path d="M88.8828 36.8906C94.0651 36.8906 98.375 37.5286 101.812 38.8047C105.25 40.0547 107.828 41.9297 109.547 44.4297C111.292 46.9297 112.164 50.0417 112.164 53.7656C112.164 56.0833 111.773 58.1927 110.992 60.0938C110.211 61.9948 109.091 63.7005 107.633 65.2109C106.201 66.6953 104.482 67.9974 102.477 69.1172L119.117 94H101.617L89.5078 73.2188H85.6016V94H70.1719V36.8906H88.8828ZM88.6484 48.5703H85.6016V61.6172H88.4922C90.862 61.6172 92.8021 61.0964 94.3125 60.0547C95.8229 59.013 96.5781 57.151 96.5781 54.4688C96.5781 52.6198 95.9531 51.1745 94.7031 50.1328C93.4531 49.0911 91.4349 48.5703 88.6484 48.5703Z" fill="white" fill-opacity="0.5"/>
<path d="M64.8828 36.8906C70.0651 36.8906 74.375 37.5286 77.8125 38.8047C81.25 40.0547 83.8281 41.9297 85.5469 44.4297C87.2917 46.9297 88.1641 50.0417 88.1641 53.7656C88.1641 56.0833 87.7734 58.1927 86.9922 60.0938C86.2109 61.9948 85.0911 63.7005 83.6328 65.2109C82.2005 66.6953 80.4818 67.9974 78.4766 69.1172L95.1172 94H77.6172L65.5078 73.2188H61.6016V94H46.1719V36.8906H64.8828ZM64.6484 48.5703H61.6016V61.6172H64.4922C66.862 61.6172 68.8021 61.0964 70.3125 60.0547C71.8229 59.013 72.5781 57.151 72.5781 54.4688C72.5781 52.6198 71.9531 51.1745 70.7031 50.1328C69.4531 49.0911 67.4349 48.5703 64.6484 48.5703Z" fill="#FFD43B"/>
</svg>
