<svg width="223" height="109" viewBox="0 0 223 109" fill="none" xmlns="http://www.w3.org/2000/svg">
<rect x="3.59998" y="38.1843" width="111" height="69" fill="url(#paint0_linear_1_2)"/>
<path d="M57.6 42.1843L59.8451 49.0942H67.1105L61.2327 53.3647L63.4778 60.2745L57.6 56.004L51.7221 60.2745L53.9673 53.3647L48.0894 49.0942H55.3548L57.6 42.1843Z" fill="#FFE066"/>
<path d="M7.86398 61.4643H14.632V65.4963H15.016C15.944 63.8643 16.856 62.6643 17.752 61.8963C18.68 61.1283 19.832 60.7443 21.208 60.7443C21.784 60.7443 22.264 60.8083 22.648 60.9363L21.928 68.2323C21.096 68.0083 20.424 67.8963 19.912 67.8963C19.176 67.8963 18.52 68.0403 17.944 68.3283C17.4 68.6163 16.904 69.0003 16.456 69.4803C16.04 69.9603 15.432 70.6963 14.632 71.6883V86.1843H7.86398V61.4643ZM42.7521 86.9043C38.7521 86.9043 35.6001 85.7523 33.2961 83.4483C31.0241 81.1443 29.8881 77.9443 29.8881 73.8483C29.8881 71.1923 30.3841 68.8883 31.3761 66.9363C32.3681 64.9523 33.7601 63.4323 35.5521 62.3763C37.3761 61.3203 39.5041 60.7923 41.9361 60.7923C45.5201 60.7923 48.2721 61.9443 50.1921 64.2483C52.1121 66.5523 53.0721 69.8803 53.0721 74.2323C53.0721 74.9683 53.0561 75.5123 53.0241 75.8643H36.7041C37.0241 77.5603 37.7601 78.8563 38.9121 79.7523C40.0641 80.6163 41.6161 81.0483 43.5681 81.0483C44.7521 81.0483 45.9841 80.9043 47.2641 80.6163C48.5441 80.2963 49.6641 79.8803 50.6241 79.3683L51.7281 84.7923C50.4481 85.4643 49.0241 85.9763 47.4561 86.3283C45.9201 86.7123 44.3521 86.9043 42.7521 86.9043ZM46.5921 70.7763C46.4961 69.4003 46.0161 68.3123 45.1521 67.5123C44.2881 66.6803 43.1361 66.2643 41.6961 66.2643C40.3201 66.2643 39.1841 66.6643 38.2881 67.4643C37.4241 68.2643 36.8801 69.3683 36.6561 70.7763H46.5921ZM75.0734 86.9043C71.0734 86.9043 67.9214 85.7523 65.6174 83.4483C63.3454 81.1443 62.2094 77.9443 62.2094 73.8483C62.2094 71.1923 62.7054 68.8883 63.6974 66.9363C64.6894 64.9523 66.0814 63.4323 67.8734 62.3763C69.6974 61.3203 71.8254 60.7923 74.2574 60.7923C77.8414 60.7923 80.5934 61.9443 82.5134 64.2483C84.4334 66.5523 85.3934 69.8803 85.3934 74.2323C85.3934 74.9683 85.3774 75.5123 85.3454 75.8643H69.0254C69.3454 77.5603 70.0814 78.8563 71.2334 79.7523C72.3854 80.6163 73.9374 81.0483 75.8894 81.0483C77.0734 81.0483 78.3054 80.9043 79.5854 80.6163C80.8654 80.2963 81.9854 79.8803 82.9454 79.3683L84.0494 84.7923C82.7694 85.4643 81.3454 85.9763 79.7774 86.3283C78.2414 86.7123 76.6734 86.9043 75.0734 86.9043ZM78.9134 70.7763C78.8174 69.4003 78.3374 68.3123 77.4734 67.5123C76.6094 66.6803 75.4574 66.2643 74.0174 66.2643C72.6414 66.2643 71.5054 66.6643 70.6094 67.4643C69.7454 68.2643 69.2014 69.3683 68.9774 70.7763H78.9134ZM93.9235 80.3763H98.2915V56.9043H94.1635V51.1443H105.059V80.3763H109.427V86.1843H93.9235V80.3763ZM119.055 61.4643H125.823V65.4963H126.207C127.135 63.8643 128.047 62.6643 128.943 61.8963C129.871 61.1283 131.023 60.7443 132.399 60.7443C132.975 60.7443 133.455 60.8083 133.839 60.9363L133.119 68.2323C132.287 68.0083 131.615 67.8963 131.103 67.8963C130.367 67.8963 129.711 68.0403 129.135 68.3283C128.591 68.6163 128.095 69.0003 127.647 69.4803C127.231 69.9603 126.623 70.6963 125.823 71.6883V86.1843H119.055V61.4643ZM149.431 86.9043C146.871 86.9043 144.839 85.8163 143.335 83.6403C141.831 81.4643 141.079 78.5043 141.079 74.7603C141.079 70.2163 142.231 66.7603 144.535 64.3923C146.839 61.9923 150.151 60.7923 154.471 60.7923C156.903 60.7923 159.751 61.1763 163.015 61.9443V86.1843H156.583L156.727 82.2483H156.535C155.703 83.7523 154.679 84.9043 153.463 85.7043C152.279 86.5043 150.935 86.9043 149.431 86.9043ZM150.871 81.0003C151.863 81.0003 152.839 80.4723 153.799 79.4163C154.759 78.3603 155.655 76.9523 156.487 75.1923V67.1283C155.463 66.8403 154.439 66.6963 153.415 66.6963C151.495 66.6963 150.039 67.3523 149.047 68.6643C148.087 69.9763 147.607 71.9123 147.607 74.4723C147.607 76.4883 147.895 78.0883 148.471 79.2723C149.047 80.4243 149.847 81.0003 150.871 81.0003ZM183.579 86.9043C181.275 86.9043 179.483 86.3283 178.203 85.1763C176.955 83.9923 176.331 82.3283 176.331 80.1843V67.2723H172.491V61.4643H176.331V56.1843C178.603 55.8003 180.843 55.5123 183.051 55.3203V61.4643H189.291V67.2723H183.051V78.9363C183.051 79.6083 183.243 80.1203 183.627 80.4723C184.043 80.8243 184.619 81.0003 185.355 81.0003C186.251 81.0003 187.275 80.7923 188.427 80.3763L189.915 85.4643C187.867 86.4243 185.755 86.9043 183.579 86.9043ZM210.242 86.9043C206.242 86.9043 203.09 85.7523 200.786 83.4483C198.514 81.1443 197.378 77.9443 197.378 73.8483C197.378 71.1923 197.874 68.8883 198.866 66.9363C199.858 64.9523 201.25 63.4323 203.042 62.3763C204.866 61.3203 206.994 60.7923 209.426 60.7923C213.01 60.7923 215.762 61.9443 217.682 64.2483C219.602 66.5523 220.562 69.8803 220.562 74.2323C220.562 74.9683 220.546 75.5123 220.514 75.8643H204.194C204.514 77.5603 205.25 78.8563 206.402 79.7523C207.554 80.6163 209.106 81.0483 211.058 81.0483C212.242 81.0483 213.474 80.9043 214.754 80.6163C216.034 80.2963 217.154 79.8803 218.114 79.3683L219.218 84.7923C217.938 85.4643 216.514 85.9763 214.946 86.3283C213.41 86.7123 211.842 86.9043 210.242 86.9043ZM214.082 70.7763C213.986 69.4003 213.506 68.3123 212.642 67.5123C211.778 66.6803 210.626 66.2643 209.186 66.2643C207.81 66.2643 206.674 66.6643 205.778 67.4643C204.914 68.2643 204.37 69.3683 204.146 70.7763H214.082Z" fill="white"/>
<rect x="1" y="27.9009" width="111.197" height="11" transform="rotate(-14 1 27.9009)" fill="url(#paint1_linear_1_2)"/>
<defs>
<linearGradient id="paint0_linear_1_2" x1="59.1" y1="38.1843" x2="59.1" y2="107.184" gradientUnits="userSpaceOnUse">
<stop stop-color="#FFD43B"/>
<stop offset="0.0001" stop-color="#FFD43B"/>
<stop offset="1" stop-color="#E67700"/>
</linearGradient>
<linearGradient id="paint1_linear_1_2" x1="56.5984" y1="27.9009" x2="56.5984" y2="38.9009" gradientUnits="userSpaceOnUse">
<stop stop-color="#FFE066"/>
<stop offset="1" stop-color="#FFD43B"/>
</linearGradient>
</defs>
</svg>
