<svg width="80" height="64" viewBox="0 0 80 64" fill="none" xmlns="http://www.w3.org/2000/svg">
<path d="M48.8828 5.89062C54.0651 5.89062 58.375 6.52865 61.8125 7.80469C65.25 9.05469 67.8281 10.9297 69.5469 13.4297C71.2917 15.9297 72.1641 19.0417 72.1641 22.7656C72.1641 25.0833 71.7734 27.1927 70.9922 29.0938C70.2109 30.9948 69.0911 32.7005 67.6328 34.2109C66.2005 35.6953 64.4818 36.9974 62.4766 38.1172L79.1172 63H61.6172L49.5078 42.2188H45.6016V63H30.1719V5.89062H48.8828ZM48.6484 17.5703H45.6016V30.6172H48.4922C50.862 30.6172 52.8021 30.0964 54.3125 29.0547C55.8229 28.013 56.5781 26.151 56.5781 23.4688C56.5781 21.6198 55.9531 20.1745 54.7031 19.1328C53.4531 18.0911 51.4349 17.5703 48.6484 17.5703Z" fill="white" fill-opacity="0.5"/>
<path d="M24.8828 5.89062C30.0651 5.89062 34.375 6.52865 37.8125 7.80469C41.25 9.05469 43.8281 10.9297 45.5469 13.4297C47.2917 15.9297 48.1641 19.0417 48.1641 22.7656C48.1641 25.0833 47.7734 27.1927 46.9922 29.0938C46.2109 30.9948 45.0911 32.7005 43.6328 34.2109C42.2005 35.6953 40.4818 36.9974 38.4766 38.1172L55.1172 63H37.6172L25.5078 42.2188H21.6016V63H6.17188V5.89062H24.8828ZM24.6484 17.5703H21.6016V30.6172H24.4922C26.862 30.6172 28.8021 30.0964 30.3125 29.0547C31.8229 28.013 32.5781 26.151 32.5781 23.4688C32.5781 21.6198 31.9531 20.1745 30.7031 19.1328C29.4531 18.0911 27.4349 17.5703 24.6484 17.5703Z" fill="#FFD43B"/>
</svg>
